<svg width="100%" height="100%" id="svg" viewBox="0 0 1440 490" xmlns="http://www.w3.org/2000/svg" class="transition duration-300 ease-in-out delay-150"><defs><linearGradient id="gradient" x1="0%" y1="50%" x2="100%" y2="50%"><stop offset="5%" stop-color="#8ed1fc"></stop><stop offset="95%" stop-color="#8ED1FC"></stop></linearGradient></defs><path d="M 0,500 L 0,0 C 70.42105263157896,54.23923444976076 140.84210526315792,108.47846889952152 248,122 C 355.1578947368421,135.52153110047848 499.0526315789473,108.32535885167465 598,116 C 696.9473684210527,123.67464114832535 750.9473684210527,166.2200956937799 834,172 C 917.0526315789473,177.7799043062201 1029.157894736842,146.79425837320574 1135,112 C 1240.842105263158,77.20574162679426 1340.421052631579,38.60287081339713 1440,0 L 1440,500 L 0,500 Z" stroke="none" stroke-width="0" fill="url(#gradient)" fill-opacity="0.53" class="transition-all duration-300 ease-in-out delay-150 path-0"></path><defs><linearGradient id="gradient" x1="0%" y1="50%" x2="100%" y2="50%"><stop offset="5%" stop-color="#8ed1fc"></stop><stop offset="95%" stop-color="#8ED1FC"></stop></linearGradient></defs><path d="M 0,500 L 0,0 C 118.11483253588517,111.70334928229664 236.22966507177034,223.40669856459328 331,280 C 425.77033492822966,336.5933014354067 497.1961722488038,338.0765550239234 594,330 C 690.8038277511962,321.9234449760766 812.9856459330143,304.287081339713 900,322 C 987.0143540669857,339.712918660287 1038.861244019139,392.7751196172249 1123,345 C 1207.138755980861,297.2248803827751 1323.5693779904304,148.61244019138755 1440,0 L 1440,500 L 0,500 Z" stroke="none" stroke-width="0" fill="url(#gradient)" fill-opacity="1" class="transition-all duration-300 ease-in-out delay-150 path-1"></path></svg>