<svg width="1440" height="1024" viewBox="0 0 1440 1024" fill="none" xmlns="http://www.w3.org/2000/svg">
<mask id="mask0_2311_10" style="mask-type:alpha" maskUnits="userSpaceOnUse" x="0" y="0" width="1440" height="1025">
<path d="M459.474 296.96H459.474C234.737 296.96 117.895 0 117.895 0H1440V1024C1353.16 1024 1202.78 970.52 1143.16 744.96C1024.74 296.96 684.211 296.96 459.474 296.96Z" fill="url(#paint0_linear_2311_10)"/>
<path d="M1440 1024V720.64C937.895 -75.52 829.326 101.12 748.365 412.467C640.177 828.523 127.447 951.401 0 925.319V1024H1440Z" fill="url(#paint1_linear_2311_10)"/>
<path d="M1440 623.36V1024H0V241.183C97.1261 178.462 208.1 122.469 394.211 241.183C431.816 265.171 501.604 320.824 536.758 345.344C722.525 474.913 741.579 623.36 1440 623.36Z" fill="url(#paint2_linear_2311_10)"/>
<path d="M1317.75 1024H1440C1425.65 1007.07 1403.27 988.151 1317.75 983.628C620.422 946.742 437.081 654.414 251.053 322.279C221.974 270.361 192.86 218.382 161.754 167.591C102.795 71.3215 48.7543 19.6514 0 0V1024H1317.75Z" fill="url(#paint3_linear_2311_10)"/>
</mask>
<g mask="url(#mask0_2311_10)">
<rect x="-181.053" y="-250.88" width="1758.95" height="1538.56" fill="#388AED"/>
</g>
<defs>
<linearGradient id="paint0_linear_2311_10" x1="633.684" y1="-2458.88" x2="2461.31" y2="-574.42" gradientUnits="userSpaceOnUse">
<stop stop-color="white"/>
<stop offset="1" stop-color="white" stop-opacity="0"/>
</linearGradient>
<linearGradient id="paint1_linear_2311_10" x1="507.368" y1="2709.76" x2="494.917" y2="180.531" gradientUnits="userSpaceOnUse">
<stop stop-color="white"/>
<stop offset="1" stop-color="white" stop-opacity="0"/>
</linearGradient>
<linearGradient id="paint2_linear_2311_10" x1="446.315" y1="-1504" x2="583.516" y2="695.836" gradientUnits="userSpaceOnUse">
<stop stop-color="white"/>
<stop offset="1" stop-color="white" stop-opacity="0"/>
</linearGradient>
<linearGradient id="paint3_linear_2311_10" x1="617.895" y1="-2868.48" x2="-696.819" y2="451.654" gradientUnits="userSpaceOnUse">
<stop stop-color="white"/>
<stop offset="1" stop-color="white" stop-opacity="0"/>
</linearGradient>
</defs>
</svg>
