<svg width="744" height="1133" viewBox="0 0 744 1133" fill="none" xmlns="http://www.w3.org/2000/svg">
<mask id="mask0_2312_1071" style="mask-type:alpha" maskUnits="userSpaceOnUse" x="-72" y="-8" width="862" height="1248">
<path d="M612.307 899.193C541.419 353.63 337.576 353.63 203.046 353.63C68.516 353.63 -1.42694 -8 -1.42694 -8H790V1239C738.015 1239 647.997 1173.87 612.307 899.193Z" fill="url(#paint0_linear_2312_1071)"/>
<path d="M790 1239V869.576C489.434 -99.9662 424.444 115.141 375.98 494.291C311.217 1000.95 4.29111 1150.59 -72 1118.83V1239H790Z" fill="url(#paint1_linear_2312_1071)"/>
<path d="M790 751.111V1239H-72V285.707C-13.8592 209.327 52.5712 141.139 163.979 285.707C186.49 314.918 228.266 382.691 249.309 412.551C360.511 570.337 371.917 751.111 790 751.111Z" fill="url(#paint2_linear_2312_1071)"/>
<path d="M716.821 1239H790C781.411 1218.38 768.012 1195.34 716.821 1189.84C299.392 1144.92 189.641 788.927 78.283 384.463C60.8759 321.238 43.4484 257.94 24.8278 196.088C-10.466 78.8534 -42.8151 15.931 -72 -8V1239H716.821Z" fill="url(#paint3_linear_2312_1071)"/>
</mask>
<g mask="url(#mask0_2312_1071)">
<rect x="-180.38" y="-313.515" width="1052.93" height="1873.62" fill="#2E77D0"/>
</g>
<defs>
<linearGradient id="paint0_linear_2312_1071" x1="307.33" y1="-3002.36" x2="2103.16" y2="-2092.14" gradientUnits="userSpaceOnUse">
<stop stop-color="white"/>
<stop offset="1" stop-color="white" stop-opacity="0"/>
</linearGradient>
<linearGradient id="paint1_linear_2312_1071" x1="231.716" y1="3291.87" x2="200.873" y2="212.08" gradientUnits="userSpaceOnUse">
<stop stop-color="white"/>
<stop offset="1" stop-color="white" stop-opacity="0"/>
</linearGradient>
<linearGradient id="paint2_linear_2312_1071" x1="195.169" y1="-1839.53" x2="530.981" y2="807.184" gradientUnits="userSpaceOnUse">
<stop stop-color="white"/>
<stop offset="1" stop-color="white" stop-opacity="0"/>
</linearGradient>
<linearGradient id="paint3_linear_2312_1071" x1="297.879" y1="-3501.16" x2="-1987.08" y2="-664.676" gradientUnits="userSpaceOnUse">
<stop stop-color="white"/>
<stop offset="1" stop-color="white" stop-opacity="0"/>
</linearGradient>
</defs>
</svg>
